PathFileType	4	(X/Y/Z)	Kaydara	
DataRate	CameraRate	NumFrames	NumMarkers	Units	OrigDataRate	OrigDataStartFrame	OrigNumFrames	
24.00	24.00	10	28	mm	24.00	34	66	
Frame#	Time	reference			Hips			Spine			Spine1			Neck			Head			Head_End			LeftShoulder			LeftArm			LeftForeArm			LeftHand			LeftHand_End			RightShoulder			RightArm			RightForeArm			RightHand			RightHand_End			LeftUpLeg			LeftLeg			LeftFoot			LeftFoot_End			RightUpLeg			RightLeg			RightFoot			RightFoot_End			Tail			Tail1			Tail1_End			
		X1	Y1	Z1	X2	Y2	Z2	X3	Y3	Z3	X4	Y4	Z4	X5	Y5	Z5	X6	Y6	Z6	X7	Y7	Z7	X8	Y8	Z8	X9	Y9	Z9	X10	Y10	Z10	X11	Y11	Z11	X12	Y12	Z12	X13	Y13	Z13	X14	Y14	Z14	X15	Y15	Z15	X16	Y16	Z16	X17	Y17	Z17	X18	Y18	Z18	X19	Y19	Z19	X20	Y20	Z20	X21	Y21	Z21	X22	Y22	Z22	X23	Y23	Z23	X24	Y24	Z24	X25	Y25	Z25	X26	Y26	Z26	X27	Y27	Z27	X28	Y28	Z28	

34	1.375	949.43764	66.73111	-507.05143	181.33560	456.46259	571.25623	181.33565	456.46256	571.25618	191.93901	447.11786	760.72979	173.02352	443.47956	984.98394	155.91779	482.39384	1118.37499	83.33160	516.57944	1268.25024	214.09321	407.34738	961.60153	246.75675	367.22688	1022.62155	234.34726	219.71543	988.11931	190.31782	136.59659	1139.23731	180.08288	98.26460	1199.31976	128.98240	417.49112	954.58708	79.81066	358.94066	978.17263	67.39216	275.02064	852.04893	73.62331	97.32123	860.30065	80.26007	29.37825	883.18515	231.44020	368.34965	532.82737	240.97746	270.46299	659.03053	184.43226	99.68884	652.79850	159.51626	11.35174	709.71729	137.51082	374.67260	515.21254	136.27183	219.89809	555.75037	174.02924	133.26459	402.55439	193.51198	36.23167	359.32206	192.40722	438.58536	505.80061	266.67733	416.02685	414.28520	342.45669	435.90784	323.38837 
35	1.417	949.43764	66.73111	-507.05143	182.26024	455.54216	586.02483	182.26029	455.54212	586.02478	199.23147	449.02849	775.15318	176.16389	444.37965	998.99963	161.69883	485.79140	1131.95048	93.37689	521.89337	1283.37294	217.16283	407.82417	976.15723	248.84895	368.37145	1038.12074	234.56799	219.87317	1008.99438	201.78603	126.28380	1156.81304	199.93683	85.95912	1216.43264	132.33968	419.16600	967.65162	82.12811	360.45275	988.48062	71.09241	276.77589	862.06712	74.82221	98.83424	864.68553	80.83610	29.82017	884.30405	229.46372	366.33169	546.47152	239.45149	266.94957	671.46526	181.08518	97.96172	650.57299	155.94836	10.19951	708.27859	135.39042	374.96024	530.69957	135.36550	219.19047	567.24785	170.55111	134.15570	412.55119	189.31886	40.39659	362.34163	191.62333	437.54990	520.33445	263.79160	411.32552	428.11717	339.64710	429.22648	336.87300 
36	1.458	949.43764	66.73111	-507.05143	183.38021	454.91715	601.94429	183.38025	454.91711	601.94424	206.83822	448.76319	790.39013	179.85081	443.34982	1013.78067	167.73997	487.91672	1145.94428	104.20078	525.18590	1299.15584	220.74211	406.35278	991.46225	251.49982	367.85813	1054.48708	237.05487	219.01336	1027.27301	209.35175	112.70049	1167.32334	210.34433	69.23154	1224.71202	136.23870	418.88321	981.55714	85.09661	360.34844	1000.54299	75.29134	278.47057	872.85648	75.31432	100.50479	869.36661	81.16743	30.47041	885.01661	227.67887	364.63914	561.46406	237.90734	264.75746	686.03943	180.01673	97.65662	652.48364	155.33314	9.21982	709.34887	133.65863	375.78884	547.01173	135.84857	219.20164	579.80884	167.36166	135.24132	423.73968	185.72349	44.96722	367.37097	191.37078	436.91767	536.07484	259.52281	404.84113	442.65964	334.54559	417.73485	349.89470 
37	1.500	949.43764	66.73111	-507.05143	184.09436	454.79518	618.93368	184.09440	454.79514	618.93363	213.43216	447.12178	806.49806	184.16316	441.22430	1029.58886	174.10372	488.64100	1160.93026	113.38162	528.67718	1314.58550	224.90936	403.90062	1007.55069	254.98092	365.84460	1071.17023	241.27388	217.37161	1041.64199	213.96979	98.28118	1171.08673	213.58014	52.35801	1226.53856	140.63645	417.29785	996.84839	88.47977	359.29117	1014.65852	78.76029	279.67218	885.54491	76.01146	102.01380	874.87051	81.52046	31.12166	886.18205	225.86632	364.25010	576.41507	237.34146	262.99442	699.76661	180.68663	98.07501	655.13675	155.64309	8.50162	710.03146	131.85790	377.48109	563.75221	134.25953	220.79980	596.08186	163.56562	139.95422	437.95173	181.12661	52.74965	376.70653	190.59759	437.59971	552.68688	253.69598	397.42339	458.85479	327.63235	401.11094	364.41002 
38	1.542	949.43764	66.73111	-507.05143	184.20598	455.95975	636.66330	184.20602	455.95972	636.66325	220.05163	444.42807	822.89459	189.33213	437.89978	1045.77270	180.98465	488.17287	1176.16839	126.43177	531.01143	1331.37419	229.84706	400.26809	1023.83215	259.54907	362.03304	1087.51790	247.24501	214.20705	1054.34992	218.36095	80.82719	1168.62814	216.13024	33.38628	1222.74264	145.77824	414.53786	1012.66278	92.79000	357.31274	1030.54650	80.38583	280.18504	900.15696	76.34932	103.20194	881.59120	81.90253	31.72121	888.19895	224.64487	365.98864	591.70739	238.41933	261.93718	712.46977	182.88639	99.90703	657.13146	157.17224	8.89625	709.28337	130.48419	379.93703	581.11490	131.70858	224.19977	617.78107	159.20644	145.65308	458.17443	174.94591	61.35128	392.52783	189.33202	439.94099	570.00193	246.05884	391.47957	476.01489	317.17017	382.02315	379.81846 
39	1.583	949.43764	66.73111	-507.05143	184.15220	457.88119	655.13935	184.15224	457.88116	655.13930	225.10894	439.91824	839.80083	194.45977	433.58536	1062.69426	187.74813	486.66970	1192.06623	137.62360	533.62806	1347.57329	234.62141	395.59823	1040.71674	264.22641	356.71609	1104.05495	256.59380	212.20638	1057.54993	216.64376	74.30729	1162.77264	211.54284	32.44927	1221.13257	150.67817	410.62891	1029.60105	96.36064	354.85410	1048.06920	78.44614	280.84638	916.51729	75.62763	104.92704	889.52773	81.92693	33.20772	890.33667	223.47232	368.92899	607.25854	239.12760	261.53735	724.82530	183.28022	102.67179	661.24220	157.48851	9.53695	709.45724	129.06166	382.99138	599.39298	129.50554	228.80175	642.11724	153.40544	149.68901	482.21114	166.45233	66.72587	414.30755	187.56791	443.28437	588.04329	236.60837	387.63109	493.71541	303.14078	364.49795	396.56451 
40	1.625	949.43764	66.73111	-507.05143	183.88914	459.89141	674.58439	183.88918	459.89138	674.58433	228.72018	434.53769	857.47056	200.22405	428.69249	1080.66276	194.89878	483.95881	1209.18271	148.77437	535.49813	1364.47675	239.99933	390.49175	1058.35533	269.92829	350.60785	1120.91359	262.73043	209.93644	1063.78414	216.26315	71.07793	1164.99229	209.40007	29.42722	1223.31992	156.01917	405.87986	1048.03609	100.58802	351.81505	1068.20238	72.84688	281.26786	936.45452	74.00222	107.11976	899.64281	81.50815	35.75148	893.79253	222.30686	372.53651	623.16123	240.99168	261.13821	736.48065	183.12944	106.02660	665.82404	157.01841	10.77069	709.51072	127.61702	386.14149	618.49955	127.94391	234.11284	668.37121	147.92893	155.14570	507.85709	159.67471	68.52048	444.43699	185.38017	447.12730	607.04573	227.15229	385.81625	512.72686	287.13305	351.13824	414.74858 
41	1.667	949.43764	66.73111	-507.05143	184.13590	461.28256	694.36237	184.13593	461.28253	694.36231	231.15657	427.53078	875.33158	206.01067	423.33466	1098.96305	201.41512	480.19914	1226.81223	159.20712	536.98811	1381.38745	245.57924	385.09230	1076.36123	276.13979	343.98972	1137.81556	267.06715	209.69124	1067.20652	216.02561	70.16489	1165.24296	209.50263	28.25491	1223.42370	161.40253	400.12225	1067.17807	105.18911	348.08921	1090.30620	69.04062	281.74460	958.41361	72.93887	109.33155	914.33934	81.96204	39.03179	901.66962	221.36322	375.78531	639.08591	241.90861	259.93593	747.51469	184.22886	108.06090	670.00966	157.78007	11.37092	710.20307	126.43751	388.50184	638.46091	127.19577	239.41014	696.52200	142.56794	161.98388	534.75406	155.35423	69.50578	480.45570	183.12378	450.39164	626.48764	217.90224	386.01782	531.37469	270.53378	343.10249	432.43938 
42	1.708	949.43764	66.73111	-507.05143	184.32192	462.32754	714.25133	184.32196	462.32751	714.25127	231.58267	420.05421	893.35848	210.17203	418.58420	1117.41289	207.31683	476.32945	1244.91754	168.58305	538.63778	1398.27127	249.65257	380.34581	1094.65100	281.62512	338.40875	1154.80949	271.93176	210.70458	1072.94550	216.18816	69.76149	1166.28188	208.28455	27.46963	1224.01338	165.22303	394.62897	1086.67657	108.99655	344.71920	1114.06075	67.08153	283.19767	981.53827	71.17435	110.94839	936.84560	82.37440	42.35405	918.04743	219.81881	378.63865	655.19813	244.02385	258.74720	758.34923	184.24454	110.84967	674.96600	157.96599	12.46137	710.92683	124.85393	390.47876	659.00262	127.05430	245.45672	726.55828	137.44267	168.37126	564.23174	152.62054	71.04020	519.95651	180.45655	453.18464	646.22133	209.35770	387.47323	550.06137	254.52573	339.95055	449.55543 
43	1.750	949.43764	66.73111	-507.05143	184.44520	463.38073	733.77726	184.44524	463.38070	733.77720	229.20547	414.26368	911.77731	212.77429	414.69620	1136.25623	211.46310	472.99176	1263.53549	175.90292	540.74382	1415.34172	252.11023	376.62195	1112.97479	285.38880	333.82027	1171.80130	278.12892	213.03865	1079.80607	217.60374	69.82610	1166.47124	209.53287	26.95125	1223.74780	167.39037	390.02775	1106.74767	111.41682	342.27454	1138.19427	69.11098	284.35153	1004.18264	73.13542	108.65957	975.89596	85.04404	42.55021	949.97816	217.73811	381.40767	671.14229	246.55971	257.48190	768.15628	184.10199	113.64400	679.78378	157.35184	13.82940	711.17606	122.97297	392.36146	679.66128	127.30249	252.70656	757.62129	133.01917	173.17781	596.24443	146.92497	72.28245	560.31735	177.45984	455.81347	665.80258	201.13260	391.21558	567.48312	238.88814	343.50085	464.05283 
